<svg width="336" height="36" viewBox="0 0 336 36" fill="none" xmlns="http://www.w3.org/2000/svg">
<path d="M17.224 0.619998V6.236H7.072V10.7H14.56V16.064H7.072V26H0.0160001V0.619998H17.224ZM19.0437 15.884C19.0437 13.796 19.4157 11.972 20.1597 10.412C20.9277 8.852 21.9597 7.652 23.2557 6.812C24.5757 5.972 26.0397 5.552 27.6477 5.552C29.0397 5.552 30.2397 5.828 31.2477 6.38C32.2557 6.932 33.0357 7.676 33.5877 8.612V5.804H40.6437V26H33.5877V23.192C33.0357 24.128 32.2437 24.872 31.2117 25.424C30.2037 25.976 29.0157 26.252 27.6477 26.252C26.0397 26.252 24.5757 25.832 23.2557 24.992C21.9597 24.152 20.9277 22.952 20.1597 21.392C19.4157 19.808 19.0437 17.972 19.0437 15.884ZM33.5877 15.884C33.5877 14.588 33.2277 13.568 32.5077 12.824C31.8117 12.08 30.9477 11.708 29.9157 11.708C28.8597 11.708 27.9837 12.08 27.2877 12.824C26.5917 13.544 26.2437 14.564 26.2437 15.884C26.2437 17.18 26.5917 18.212 27.2877 18.98C27.9837 19.724 28.8597 20.096 29.9157 20.096C30.9477 20.096 31.8117 19.724 32.5077 18.98C33.2277 18.236 33.5877 17.204 33.5877 15.884ZM57.8764 5.624C60.2044 5.624 62.0524 6.404 63.4204 7.964C64.7884 9.5 65.4724 11.588 65.4724 14.228V26H58.4164V15.164C58.4164 14.012 58.1164 13.112 57.5164 12.464C56.9164 11.792 56.1124 11.456 55.1044 11.456C54.0484 11.456 53.2204 11.792 52.6204 12.464C52.0204 13.112 51.7204 14.012 51.7204 15.164V26H44.6644V5.804H51.7204V8.684C52.3444 7.772 53.1844 7.04 54.2404 6.488C55.2964 5.912 56.5084 5.624 57.8764 5.624ZM68.1921 15.884C68.1921 13.796 68.6241 11.972 69.4881 10.412C70.3521 8.852 71.5521 7.652 73.0881 6.812C74.6481 5.972 76.4241 5.552 78.4161 5.552C80.9841 5.552 83.1441 6.26 84.8961 7.676C86.6481 9.068 87.7761 11.024 88.2801 13.544H80.7921C80.3601 12.224 79.5201 11.564 78.2721 11.564C77.3841 11.564 76.6761 11.936 76.1481 12.68C75.6441 13.4 75.3921 14.468 75.3921 15.884C75.3921 17.3 75.6441 18.38 76.1481 19.124C76.6761 19.868 77.3841 20.24 78.2721 20.24C79.5441 20.24 80.3841 19.58 80.7921 18.26H88.2801C87.7761 20.756 86.6481 22.712 84.8961 24.128C83.1441 25.544 80.9841 26.252 78.4161 26.252C76.4241 26.252 74.6481 25.832 73.0881 24.992C71.5521 24.152 70.3521 22.952 69.4881 21.392C68.6241 19.832 68.1921 17.996 68.1921 15.884ZM112.955 5.804L100.139 35.612H92.4713L97.2953 25.136L89.0153 5.804H96.8633L101.111 17.252L105.215 5.804H112.955ZM140.808 0.619998V6.236H134.04V26H126.984V6.236H120.288V0.619998H140.808ZM142.266 15.884C142.266 13.796 142.638 11.972 143.382 10.412C144.15 8.852 145.182 7.652 146.478 6.812C147.798 5.972 149.262 5.552 150.87 5.552C152.262 5.552 153.462 5.828 154.47 6.38C155.478 6.932 156.258 7.676 156.81 8.612V5.804H163.866V26H156.81V23.192C156.258 24.128 155.466 24.872 154.434 25.424C153.426 25.976 152.238 26.252 150.87 26.252C149.262 26.252 147.798 25.832 146.478 24.992C145.182 24.152 144.15 22.952 143.382 21.392C142.638 19.808 142.266 17.972 142.266 15.884ZM156.81 15.884C156.81 14.588 156.45 13.568 155.73 12.824C155.034 12.08 154.17 11.708 153.138 11.708C152.082 11.708 151.206 12.08 150.51 12.824C149.814 13.544 149.466 14.564 149.466 15.884C149.466 17.18 149.814 18.212 150.51 18.98C151.206 19.724 152.082 20.096 153.138 20.096C154.17 20.096 155.034 19.724 155.73 18.98C156.45 18.236 156.81 17.204 156.81 15.884ZM194.275 5.624C196.819 5.624 198.811 6.392 200.251 7.928C201.715 9.464 202.447 11.564 202.447 14.228V26H195.391V15.164C195.391 14.084 195.091 13.244 194.491 12.644C193.891 12.044 193.075 11.744 192.043 11.744C191.011 11.744 190.195 12.044 189.595 12.644C188.995 13.244 188.695 14.084 188.695 15.164V26H181.639V15.164C181.639 14.084 181.339 13.244 180.739 12.644C180.163 12.044 179.359 11.744 178.327 11.744C177.271 11.744 176.443 12.044 175.843 12.644C175.243 13.244 174.943 14.084 174.943 15.164V26H167.887V5.804H174.943V8.468C175.567 7.604 176.371 6.92 177.355 6.416C178.363 5.888 179.515 5.624 180.811 5.624C182.299 5.624 183.619 5.948 184.771 6.596C185.947 7.244 186.871 8.156 187.543 9.332C188.263 8.228 189.211 7.34 190.387 6.668C191.563 5.972 192.859 5.624 194.275 5.624ZM220.26 6.272V10.412H228.36V15.776H220.26V20.348H229.44V26H213.204V0.619998H229.44V6.272H220.26ZM242.61 19.34L246.39 5.804H253.914L246.966 26H238.182L231.234 5.804H238.758L242.61 19.34ZM275.601 15.668C275.601 16.22 275.565 16.772 275.493 17.324H262.137C262.209 18.428 262.509 19.256 263.037 19.808C263.589 20.336 264.285 20.6 265.125 20.6C266.301 20.6 267.141 20.072 267.645 19.016H275.169C274.857 20.408 274.245 21.656 273.333 22.76C272.445 23.84 271.317 24.692 269.949 25.316C268.581 25.94 267.069 26.252 265.413 26.252C263.421 26.252 261.645 25.832 260.085 24.992C258.549 24.152 257.337 22.952 256.449 21.392C255.585 19.832 255.153 17.996 255.153 15.884C255.153 13.772 255.585 11.948 256.449 10.412C257.313 8.852 258.513 7.652 260.049 6.812C261.609 5.972 263.397 5.552 265.413 5.552C267.405 5.552 269.169 5.96 270.705 6.776C272.241 7.592 273.441 8.768 274.305 10.304C275.169 11.816 275.601 13.604 275.601 15.668ZM268.401 13.904C268.401 13.04 268.113 12.368 267.537 11.888C266.961 11.384 266.241 11.132 265.377 11.132C264.513 11.132 263.805 11.372 263.253 11.852C262.701 12.308 262.341 12.992 262.173 13.904H268.401ZM291.701 5.624C294.029 5.624 295.877 6.404 297.245 7.964C298.613 9.5 299.297 11.588 299.297 14.228V26H292.241V15.164C292.241 14.012 291.941 13.112 291.341 12.464C290.741 11.792 289.937 11.456 288.929 11.456C287.873 11.456 287.045 11.792 286.445 12.464C285.845 13.112 285.545 14.012 285.545 15.164V26H278.489V5.804H285.545V8.684C286.169 7.772 287.009 7.04 288.065 6.488C289.121 5.912 290.333 5.624 291.701 5.624ZM315.084 19.988V26H312.024C306.864 26 304.284 23.444 304.284 18.332V11.672H301.8V5.804H304.284V0.907999H311.376V5.804H315.048V11.672H311.376V18.44C311.376 18.992 311.496 19.388 311.736 19.628C312 19.868 312.432 19.988 313.032 19.988H315.084ZM326.925 26.252C325.101 26.252 323.469 25.952 322.029 25.352C320.613 24.728 319.485 23.888 318.645 22.832C317.829 21.752 317.373 20.54 317.277 19.196H324.117C324.213 19.844 324.513 20.348 325.017 20.708C325.521 21.068 326.145 21.248 326.889 21.248C327.465 21.248 327.921 21.128 328.257 20.888C328.593 20.648 328.761 20.336 328.761 19.952C328.761 19.448 328.485 19.076 327.933 18.836C327.381 18.596 326.469 18.332 325.197 18.044C323.757 17.756 322.557 17.432 321.597 17.072C320.637 16.712 319.797 16.124 319.077 15.308C318.381 14.492 318.033 13.388 318.033 11.996C318.033 10.796 318.357 9.716 319.005 8.756C319.653 7.772 320.601 6.992 321.849 6.416C323.121 5.84 324.645 5.552 326.421 5.552C329.061 5.552 331.137 6.2 332.649 7.496C334.161 8.792 335.037 10.496 335.277 12.608H328.905C328.785 11.96 328.497 11.468 328.041 11.132C327.609 10.772 327.021 10.592 326.277 10.592C325.701 10.592 325.257 10.7 324.945 10.916C324.657 11.132 324.513 11.432 324.513 11.816C324.513 12.296 324.789 12.668 325.341 12.932C325.893 13.172 326.781 13.424 328.005 13.688C329.469 14 330.681 14.348 331.641 14.732C332.625 15.116 333.477 15.74 334.197 16.604C334.941 17.444 335.313 18.596 335.313 20.06C335.313 21.236 334.965 22.292 334.269 23.228C333.597 24.164 332.625 24.908 331.353 25.46C330.105 25.988 328.629 26.252 326.925 26.252Z" fill="#640D5F" fill-opacity="0.76"/>
</svg>
